<mxfile host="Electron" agent="Mozilla/5.0 (X11; Linux x86_64) AppleWebKit/537.36 (KHTML, like Gecko) draw.io/24.7.8 Chrome/128.0.6613.36 Electron/32.0.1 Safari/537.36" version="24.7.8">
  <diagram name="PÃ¡gina-1" id="oE5SToJG6d0fqBrR_LVp">
    <mxGraphModel dx="926" dy="576" grid="1" gridSize="10" guides="1" tooltips="1" connect="1" arrows="1" fold="1" page="1" pageScale="1" pageWidth="1169" pageHeight="827" math="0" shadow="0">
      <root>
        <mxCell id="0" />
        <mxCell id="1" parent="0" />
        <mxCell id="YD6msoa2M3r7hMomgX2S-1" value="&lt;i style=&quot;&quot;&gt;&lt;font style=&quot;font-size: 20px;&quot;&gt;USER&lt;/font&gt;&lt;/i&gt;" style="rounded=0;whiteSpace=wrap;html=1;fillColor=none;" vertex="1" parent="1">
          <mxGeometry x="370" y="118" width="110" height="80" as="geometry" />
        </mxCell>
        <mxCell id="YD6msoa2M3r7hMomgX2S-2" value="&lt;i style=&quot;&quot;&gt;&lt;font style=&quot;font-size: 20px;&quot;&gt;TASK&lt;/font&gt;&lt;/i&gt;" style="rounded=0;whiteSpace=wrap;html=1;fillColor=none;align=center;" vertex="1" parent="1">
          <mxGeometry x="840" y="118" width="110" height="80" as="geometry" />
        </mxCell>
        <mxCell id="YD6msoa2M3r7hMomgX2S-3" value="&lt;i&gt;&lt;font style=&quot;font-size: 16px;&quot;&gt;CREATE&lt;/font&gt;&lt;/i&gt;" style="html=1;whiteSpace=wrap;aspect=fixed;shape=isoRectangle;fillColor=none;" vertex="1" parent="1">
          <mxGeometry x="590" y="118" width="133.34" height="80" as="geometry" />
        </mxCell>
        <mxCell id="YD6msoa2M3r7hMomgX2S-5" value="" style="endArrow=none;html=1;rounded=0;exitX=1;exitY=0.5;exitDx=0;exitDy=0;" edge="1" parent="1" source="YD6msoa2M3r7hMomgX2S-1">
          <mxGeometry width="50" height="50" relative="1" as="geometry">
            <mxPoint x="490" y="158" as="sourcePoint" />
            <mxPoint x="590" y="158" as="targetPoint" />
          </mxGeometry>
        </mxCell>
        <mxCell id="YD6msoa2M3r7hMomgX2S-6" value="" style="endArrow=none;html=1;rounded=0;exitX=1;exitY=0.5;exitDx=0;exitDy=0;entryX=0;entryY=0.5;entryDx=0;entryDy=0;" edge="1" parent="1" target="YD6msoa2M3r7hMomgX2S-2">
          <mxGeometry width="50" height="50" relative="1" as="geometry">
            <mxPoint x="723.34" y="157.5" as="sourcePoint" />
            <mxPoint x="835.34" y="158.5" as="targetPoint" />
          </mxGeometry>
        </mxCell>
        <mxCell id="YD6msoa2M3r7hMomgX2S-8" value="Name" style="text;html=1;align=center;verticalAlign=middle;resizable=0;points=[];autosize=1;strokeColor=none;fillColor=none;" vertex="1" parent="1">
          <mxGeometry x="245" y="133" width="60" height="30" as="geometry" />
        </mxCell>
        <mxCell id="YD6msoa2M3r7hMomgX2S-14" value="Email" style="text;html=1;align=center;verticalAlign=middle;resizable=0;points=[];autosize=1;strokeColor=none;fillColor=none;" vertex="1" parent="1">
          <mxGeometry x="250" y="158" width="50" height="30" as="geometry" />
        </mxCell>
        <mxCell id="YD6msoa2M3r7hMomgX2S-15" value="Password" style="text;html=1;align=center;verticalAlign=middle;resizable=0;points=[];autosize=1;strokeColor=none;fillColor=none;" vertex="1" parent="1">
          <mxGeometry x="225" y="188" width="80" height="30" as="geometry" />
        </mxCell>
        <mxCell id="YD6msoa2M3r7hMomgX2S-17" value="" style="ellipse;whiteSpace=wrap;html=1;" vertex="1" parent="1">
          <mxGeometry x="300" y="198" width="10" height="10" as="geometry" />
        </mxCell>
        <mxCell id="YD6msoa2M3r7hMomgX2S-18" value="" style="ellipse;whiteSpace=wrap;html=1;fillColor=#00FF00;" vertex="1" parent="1">
          <mxGeometry x="300" y="168" width="10" height="10" as="geometry" />
        </mxCell>
        <mxCell id="YD6msoa2M3r7hMomgX2S-19" value="" style="ellipse;whiteSpace=wrap;html=1;" vertex="1" parent="1">
          <mxGeometry x="300" y="143" width="10" height="10" as="geometry" />
        </mxCell>
        <mxCell id="YD6msoa2M3r7hMomgX2S-23" value="" style="endArrow=none;html=1;rounded=0;entryX=0;entryY=0.75;entryDx=0;entryDy=0;exitX=1;exitY=0.5;exitDx=0;exitDy=0;" edge="1" parent="1" source="YD6msoa2M3r7hMomgX2S-17" target="YD6msoa2M3r7hMomgX2S-1">
          <mxGeometry width="50" height="50" relative="1" as="geometry">
            <mxPoint x="280" y="218" as="sourcePoint" />
            <mxPoint x="330" y="168" as="targetPoint" />
          </mxGeometry>
        </mxCell>
        <mxCell id="YD6msoa2M3r7hMomgX2S-24" value="" style="endArrow=none;html=1;rounded=0;entryX=0;entryY=0.5;entryDx=0;entryDy=0;exitX=1;exitY=0.5;exitDx=0;exitDy=0;" edge="1" parent="1" source="YD6msoa2M3r7hMomgX2S-18" target="YD6msoa2M3r7hMomgX2S-1">
          <mxGeometry width="50" height="50" relative="1" as="geometry">
            <mxPoint x="290" y="223" as="sourcePoint" />
            <mxPoint x="380" y="188" as="targetPoint" />
            <Array as="points">
              <mxPoint x="320" y="170" />
            </Array>
          </mxGeometry>
        </mxCell>
        <mxCell id="YD6msoa2M3r7hMomgX2S-25" value="" style="endArrow=none;html=1;rounded=0;exitX=1;exitY=0.5;exitDx=0;exitDy=0;entryX=0;entryY=0.346;entryDx=0;entryDy=0;entryPerimeter=0;" edge="1" parent="1" source="YD6msoa2M3r7hMomgX2S-19" target="YD6msoa2M3r7hMomgX2S-1">
          <mxGeometry width="50" height="50" relative="1" as="geometry">
            <mxPoint x="330" y="151.40999999999997" as="sourcePoint" />
            <mxPoint x="371" y="145" as="targetPoint" />
            <Array as="points">
              <mxPoint x="330.62" y="145" />
              <mxPoint x="350" y="140" />
            </Array>
          </mxGeometry>
        </mxCell>
        <mxCell id="YD6msoa2M3r7hMomgX2S-26" value="Title" style="text;html=1;align=center;verticalAlign=middle;resizable=0;points=[];autosize=1;strokeColor=none;fillColor=none;" vertex="1" parent="1">
          <mxGeometry x="1045" y="118" width="50" height="30" as="geometry" />
        </mxCell>
        <mxCell id="YD6msoa2M3r7hMomgX2S-27" value="Description" style="text;html=1;align=center;verticalAlign=middle;resizable=0;points=[];autosize=1;strokeColor=none;fillColor=none;" vertex="1" parent="1">
          <mxGeometry x="1040" y="143" width="80" height="30" as="geometry" />
        </mxCell>
        <mxCell id="YD6msoa2M3r7hMomgX2S-28" value="Status" style="text;html=1;align=center;verticalAlign=middle;resizable=0;points=[];autosize=1;strokeColor=none;fillColor=none;" vertex="1" parent="1">
          <mxGeometry x="1040" y="168" width="60" height="30" as="geometry" />
        </mxCell>
        <mxCell id="YD6msoa2M3r7hMomgX2S-29" value="Due_date" style="text;html=1;align=center;verticalAlign=middle;resizable=0;points=[];autosize=1;strokeColor=none;fillColor=none;" vertex="1" parent="1">
          <mxGeometry x="1040" y="198" width="80" height="30" as="geometry" />
        </mxCell>
        <mxCell id="YD6msoa2M3r7hMomgX2S-30" value="" style="endArrow=none;html=1;rounded=0;exitX=1;exitY=0.25;exitDx=0;exitDy=0;entryX=0;entryY=0.5;entryDx=0;entryDy=0;" edge="1" parent="1" source="YD6msoa2M3r7hMomgX2S-2" target="YD6msoa2M3r7hMomgX2S-33">
          <mxGeometry width="50" height="50" relative="1" as="geometry">
            <mxPoint x="980" y="210" as="sourcePoint" />
            <mxPoint x="980" y="130" as="targetPoint" />
            <Array as="points">
              <mxPoint x="980" y="130" />
            </Array>
          </mxGeometry>
        </mxCell>
        <mxCell id="YD6msoa2M3r7hMomgX2S-32" value="" style="ellipse;whiteSpace=wrap;html=1;aspect=fixed;" vertex="1" parent="1">
          <mxGeometry x="1030" y="153" width="10" height="10" as="geometry" />
        </mxCell>
        <mxCell id="YD6msoa2M3r7hMomgX2S-33" value="" style="ellipse;whiteSpace=wrap;html=1;aspect=fixed;" vertex="1" parent="1">
          <mxGeometry x="1030" y="133" width="10" height="10" as="geometry" />
        </mxCell>
        <mxCell id="YD6msoa2M3r7hMomgX2S-35" value="" style="ellipse;whiteSpace=wrap;html=1;aspect=fixed;" vertex="1" parent="1">
          <mxGeometry x="1030" y="208" width="10" height="10" as="geometry" />
        </mxCell>
        <mxCell id="YD6msoa2M3r7hMomgX2S-36" value="" style="ellipse;whiteSpace=wrap;html=1;aspect=fixed;" vertex="1" parent="1">
          <mxGeometry x="1030" y="178" width="10" height="10" as="geometry" />
        </mxCell>
        <mxCell id="YD6msoa2M3r7hMomgX2S-37" value="" style="endArrow=none;html=1;rounded=0;exitX=1.001;exitY=0.449;exitDx=0;exitDy=0;exitPerimeter=0;" edge="1" parent="1" source="YD6msoa2M3r7hMomgX2S-2" target="YD6msoa2M3r7hMomgX2S-32">
          <mxGeometry width="50" height="50" relative="1" as="geometry">
            <mxPoint x="960" y="148" as="sourcePoint" />
            <mxPoint x="995" y="138" as="targetPoint" />
            <Array as="points" />
          </mxGeometry>
        </mxCell>
        <mxCell id="YD6msoa2M3r7hMomgX2S-38" value="" style="endArrow=none;html=1;rounded=0;entryX=0;entryY=0.5;entryDx=0;entryDy=0;exitX=1;exitY=0.75;exitDx=0;exitDy=0;" edge="1" parent="1" source="YD6msoa2M3r7hMomgX2S-2" target="YD6msoa2M3r7hMomgX2S-36">
          <mxGeometry width="50" height="50" relative="1" as="geometry">
            <mxPoint x="951" y="173" as="sourcePoint" />
            <mxPoint x="1005" y="148" as="targetPoint" />
            <Array as="points">
              <mxPoint x="970" y="174" />
            </Array>
          </mxGeometry>
        </mxCell>
        <mxCell id="YD6msoa2M3r7hMomgX2S-39" value="" style="endArrow=none;html=1;rounded=0;exitX=1.002;exitY=0.93;exitDx=0;exitDy=0;entryX=0;entryY=0.5;entryDx=0;entryDy=0;exitPerimeter=0;" edge="1" parent="1" source="YD6msoa2M3r7hMomgX2S-2" target="YD6msoa2M3r7hMomgX2S-35">
          <mxGeometry width="50" height="50" relative="1" as="geometry">
            <mxPoint x="940" y="196" as="sourcePoint" />
            <mxPoint x="975" y="186" as="targetPoint" />
            <Array as="points">
              <mxPoint x="970" y="200" />
            </Array>
          </mxGeometry>
        </mxCell>
        <mxCell id="YD6msoa2M3r7hMomgX2S-42" value="Id" style="text;html=1;align=center;verticalAlign=middle;resizable=0;points=[];autosize=1;strokeColor=none;fillColor=none;" vertex="1" parent="1">
          <mxGeometry x="1045" y="88" width="30" height="30" as="geometry" />
        </mxCell>
        <mxCell id="YD6msoa2M3r7hMomgX2S-43" value="" style="ellipse;whiteSpace=wrap;html=1;aspect=fixed;fillColor=#00FF00;" vertex="1" parent="1">
          <mxGeometry x="1030" y="98" width="10" height="10" as="geometry" />
        </mxCell>
        <mxCell id="YD6msoa2M3r7hMomgX2S-45" value="" style="endArrow=none;html=1;rounded=0;exitX=1.002;exitY=0.115;exitDx=0;exitDy=0;entryX=0.03;entryY=0.678;entryDx=0;entryDy=0;exitPerimeter=0;entryPerimeter=0;" edge="1" parent="1" source="YD6msoa2M3r7hMomgX2S-2" target="YD6msoa2M3r7hMomgX2S-43">
          <mxGeometry width="50" height="50" relative="1" as="geometry">
            <mxPoint x="960" y="148" as="sourcePoint" />
            <mxPoint x="1040" y="123" as="targetPoint" />
            <Array as="points" />
          </mxGeometry>
        </mxCell>
        <mxCell id="YD6msoa2M3r7hMomgX2S-46" value="" style="ellipse;whiteSpace=wrap;html=1;fillColor=#00FF00;" vertex="1" parent="1">
          <mxGeometry x="305" y="118" width="10" height="10" as="geometry" />
        </mxCell>
        <mxCell id="YD6msoa2M3r7hMomgX2S-47" value="Id" style="text;html=1;align=center;verticalAlign=middle;resizable=0;points=[];autosize=1;strokeColor=none;fillColor=none;" vertex="1" parent="1">
          <mxGeometry x="260" y="108" width="30" height="30" as="geometry" />
        </mxCell>
        <mxCell id="YD6msoa2M3r7hMomgX2S-48" value="" style="endArrow=none;html=1;rounded=0;exitX=1;exitY=0.5;exitDx=0;exitDy=0;entryX=-0.011;entryY=0.038;entryDx=0;entryDy=0;entryPerimeter=0;" edge="1" parent="1" source="YD6msoa2M3r7hMomgX2S-46" target="YD6msoa2M3r7hMomgX2S-1">
          <mxGeometry width="50" height="50" relative="1" as="geometry">
            <mxPoint x="330" y="158" as="sourcePoint" />
            <mxPoint x="380" y="156" as="targetPoint" />
            <Array as="points">
              <mxPoint x="341" y="120" />
            </Array>
          </mxGeometry>
        </mxCell>
        <mxCell id="YD6msoa2M3r7hMomgX2S-49" value="(0, n)" style="text;html=1;align=center;verticalAlign=middle;whiteSpace=wrap;rounded=0;" vertex="1" parent="1">
          <mxGeometry x="500" y="118" width="60" height="30" as="geometry" />
        </mxCell>
        <mxCell id="YD6msoa2M3r7hMomgX2S-50" value="(1, 1)" style="text;html=1;align=center;verticalAlign=middle;whiteSpace=wrap;rounded=0;" vertex="1" parent="1">
          <mxGeometry x="750" y="118" width="60" height="30" as="geometry" />
        </mxCell>
      </root>
    </mxGraphModel>
  </diagram>
</mxfile>
